<svg width="951" height="960" viewBox="0 0 951 960" fill="none" xmlns="http://www.w3.org/2000/svg">
<g opacity="0.5">
<path d="M1470.05 586.342C1604.08 438.91 1594.66 208.634 1449.14 72.56C1387.01 14.2719 1306.43 -20.429 1221.39 -25.5237C1121.43 -31.575 1025.58 -66.7505 941.863 -121.86C695.667 -283.984 359.38 -245.702 155.964 -18.5015C-66.6093 230.219 -45.2516 615.434 203.08 838.396C438.177 1049.48 791.582 1041.75 1016.91 836.648C1091.33 768.951 1180.87 719.375 1279.02 697.5C1352.67 681.107 1419.41 642.269 1470.05 586.342Z" stroke="#FA89E2" stroke-width="2.67821" stroke-miterlimit="10"/>
<path d="M1434.93 578.898C1561.91 439.167 1553.01 220.962 1415.1 92.0069C1356.21 36.7689 1279.85 3.88776 1199.25 -0.931532C1104.47 -6.5622 1013.73 -39.9903 934.385 -92.2519C701.101 -245.866 382.289 -209.59 189.616 5.70231C-21.2749 241.414 -1.04982 606.436 234.306 817.748C457.073 1017.77 791.968 1010.45 1005.51 816.065C1075.96 751.928 1160.84 704.941 1253.88 684.198C1323.67 668.681 1386.93 631.889 1434.93 578.898V578.898Z" stroke="#FA89E2" stroke-width="2.67821" stroke-miterlimit="10"/>
<path d="M1399.73 571.456C1519.69 439.426 1511.27 233.292 1380.99 111.456C1325.37 59.2915 1253.24 28.2327 1177.12 23.6631C1087.55 18.2266 1001.83 -13.2598 926.882 -62.6091C706.477 -207.744 405.301 -173.475 223.275 29.941C24.0654 252.611 43.1903 597.473 265.537 797.103C475.878 986.054 792.36 979.161 994.094 795.518C1060.66 734.907 1140.88 690.541 1228.77 670.931C1294.67 656.254 1354.4 621.499 1399.73 571.456V571.456Z" stroke="#FA89E2" stroke-width="2.67821" stroke-miterlimit="10"/>
<path d="M1364.65 563.981C1477.62 439.718 1469.69 245.621 1347.01 130.937C1294.65 81.8035 1226.73 52.5518 1155.05 48.2567C1070.72 43.1438 990.015 13.5019 919.437 -32.9673C711.944 -169.624 428.372 -137.329 256.992 54.1786C69.3036 263.808 87.3928 588.51 296.731 776.457C494.872 954.438 792.747 947.966 982.766 774.969C1045.42 717.885 1120.98 676.109 1203.69 657.663C1265.74 643.829 1321.97 611.1 1364.65 563.981V563.981Z" stroke="#FA89E2" stroke-width="2.67821" stroke-miterlimit="10"/>
<path d="M1329.5 556.506C1435.45 440.009 1428.01 257.919 1312.97 150.353C1263.86 104.232 1200.16 76.7549 1132.91 72.6889C1053.83 67.8996 978.135 40.1022 911.958 -3.48696C717.344 -131.633 451.408 -101.376 290.643 78.2225C114.733 274.972 131.625 579.514 327.954 755.78C513.767 922.629 793.164 916.545 971.275 754.388C1030.07 700.897 1100.91 661.676 1178.38 644.364C1236.64 631.441 1289.45 600.741 1329.5 556.506V556.506Z" stroke="#FA89E2" stroke-width="2.67821" stroke-miterlimit="10"/>
<path d="M1294.36 549.095C1328.62 511.375 1351.53 464.74 1360.44 414.566C1369.35 364.392 1363.89 312.722 1344.71 265.513C1325.52 218.304 1293.39 177.478 1252 147.742C1210.62 118.006 1161.68 100.57 1110.81 97.4442C1036.97 92.9462 966.294 66.9933 904.486 26.2519C722.751 -93.4807 474.451 -65.1656 324.365 102.557C160.072 286.136 175.832 570.485 359.152 735.069C532.667 890.883 793.555 885.188 959.886 733.774C1014.9 683.81 1080.91 647.211 1153.37 631.063C1207.71 618.966 1256.96 590.331 1294.36 549.095V549.095Z" stroke="#FA89E2" stroke-width="2.67821" stroke-miterlimit="10"/>
<path d="M1259.22 541.62C1291.06 506.581 1312.35 463.254 1320.63 416.637C1328.91 370.021 1323.84 322.013 1306.01 278.152C1288.18 234.29 1258.32 196.361 1219.87 168.739C1181.41 141.118 1135.94 124.928 1088.68 122.038C1020.07 117.864 954.416 93.7555 897.009 55.9588C813.533 1.4005 713.274 -21.4486 614.401 -8.44762C515.529 4.55335 424.584 52.5441 358.05 126.828C205.407 297.398 220.067 561.586 390.41 714.488C551.629 859.235 793.974 853.928 948.494 713.258C999.461 666.854 1060.91 632.843 1128.22 617.99C1178.74 606.71 1224.51 580.025 1259.22 541.62V541.62Z" stroke="#FA89E2" stroke-width="2.67821" stroke-miterlimit="10"/>
<path d="M1224.08 534.178C1253.48 501.812 1273.14 461.796 1280.78 418.743C1288.42 375.69 1283.75 331.353 1267.28 290.844C1250.82 250.335 1223.24 215.303 1187.73 189.788C1152.22 164.273 1110.23 149.312 1066.58 146.633C1003.22 142.782 942.577 120.518 889.539 85.6013C812.438 35.2077 719.835 14.1033 628.513 26.1129C537.19 38.1226 453.192 82.4518 391.742 151.066C250.749 308.595 264.275 552.591 421.578 693.843C570.435 827.523 794.335 822.636 937.076 692.71C984.16 649.833 1040.92 618.444 1103.08 604.561C1149.73 594.197 1192.01 569.604 1224.08 534.178V534.178Z" stroke="#FA89E2" stroke-width="2.67821" stroke-miterlimit="10"/>
</g>
</svg>
